# xmcd
#
# Track frame offsets:
#	150
#	15602
#	34021
#	50261
#	65643
#	81618
#	99172
#	114865
#	129668
#	146073
#	161525
#	179944
#	196184
#	211566
#	227541
#	245095
#	260788
#	275591
#
# Disc length: 3893 seconds
#
# Revision: 1
# Processed by: cddbd v1.5.2PL0 Copyright (c) Steve Scherf et al.
# Submitted via: audiograbber 1.83.01
#
DISCID=040f3312
DTITLE=Various Artist - PHMC2110307
DYEAR=2011
DGENRE=Country
TTITLE0=Ash Bowers - I Still Believe In That
TTITLE1=Daisy Mallery - Don't Grow Up Too Fast
TTITLE2=Ronnie Dunn - She's Acting Single
TTITLE3=D. J. Miller - Whatever It Takes
TTITLE4=Chase Rice - Buzz Back
TTITLE5=Jody Booth - Gold Digger
TTITLE6=Christine Van Hoy - What I Live For
TTITLE7=Bridgette Tatum - Hillbilly Rockstar
TTITLE8=Kim McLean - Sweet Tea
TTITLE9=Ash Bowers - I Still Believe In That w/ vocal
TTITLE10=Daisy Mallery - Don't Grow Up Too Fast w/ vocal
TTITLE11=Ronnie Dunn - She's Acting Single w/ vocal
TTITLE12=D. J. Miller - Whatever It Takes w/ vocal
TTITLE13=Chase Rice - Buzz Back w/ vocal
TTITLE14=Jody Booth - Gold Digger w/ vocal
TTITLE15=Christine Van Hoy - What I Live For w/ vocal
TTITLE16=Bridgette Tatum - Hillbilly Rockstar w/ vocal
TTITLE17=Kim McLean - Sweet Tea w/ vocal
EXTD=
EXTT0=
EXTT1=
EXTT2=
EXTT3=
EXTT4=
EXTT5=
EXTT6=
EXTT7=
EXTT8=
EXTT9=
EXTT10=
EXTT11=
EXTT12=
EXTT13=
EXTT14=
EXTT15=
EXTT16=
EXTT17=
PLAYORDER=
